<svg width="720" height="540" viewBox="0 0 720 540" fill="none" xmlns="http://www.w3.org/2000/svg">
  <rect width="720" height="540" rx="36" fill="#FCF6EA"/>
  <rect x="44" y="54" width="632" height="432" rx="28" fill="#FFFDF8" stroke="#D8C7AC" stroke-width="2"/>
  <path d="M118 378C176 316 222 307 276 330C325 351 364 282 421 258C485 231 529 250 602 168" stroke="#9F3D2F" stroke-width="10" stroke-linecap="round"/>
  <circle cx="118" cy="378" r="18" fill="#20303A"/>
  <circle cx="276" cy="330" r="18" fill="#20303A"/>
  <circle cx="421" cy="258" r="18" fill="#20303A"/>
  <circle cx="602" cy="168" r="18" fill="#20303A"/>
  <rect x="88" y="100" width="128" height="54" rx="16" fill="#EFE1CA"/>
  <text x="152" y="133" text-anchor="middle" font-family="Arial, sans-serif" font-size="22" font-weight="700" fill="#20303A">Coursework</text>
  <rect x="234" y="388" width="146" height="54" rx="16" fill="#EFE1CA"/>
  <text x="307" y="421" text-anchor="middle" font-family="Arial, sans-serif" font-size="22" font-weight="700" fill="#20303A">Internships</text>
  <rect x="377" y="120" width="120" height="54" rx="16" fill="#EFE1CA"/>
  <text x="437" y="153" text-anchor="middle" font-family="Arial, sans-serif" font-size="22" font-weight="700" fill="#20303A">Projects</text>
  <rect x="525" y="230" width="108" height="54" rx="16" fill="#20303A"/>
  <text x="579" y="263" text-anchor="middle" font-family="Arial, sans-serif" font-size="22" font-weight="700" fill="#FFF9EF">Impact</text>
  <rect x="92" y="450" width="536" height="8" rx="4" fill="#D8C7AC"/>
</svg>
