<svg width="720" height="720" viewBox="0 0 720 720" fill="none" xmlns="http://www.w3.org/2000/svg">
  <rect width="720" height="720" rx="40" fill="#F9F1E3"/>
  <rect x="34" y="34" width="652" height="652" rx="32" fill="#FFF9EF" stroke="#D8C7AC" stroke-width="2"/>
  <circle cx="360" cy="234" r="108" fill="#20303A"/>
  <circle cx="360" cy="219" r="78" fill="#F4C89B"/>
  <path d="M298 252C305 218 329 194 360 194C391 194 415 218 422 252V270H298V252Z" fill="#1A232B"/>
  <path d="M253 518C263 420 307 374 360 374C413 374 457 420 467 518H253Z" fill="#9F3D2F"/>
  <rect x="92" y="86" width="146" height="40" rx="20" fill="#E8DDD1"/>
  <text x="165" y="113" text-anchor="middle" font-family="Arial, sans-serif" font-size="18" font-weight="700" fill="#6F241A">NYC METRO</text>
  <rect x="480" y="86" width="142" height="40" rx="20" fill="#20303A"/>
  <text x="551" y="113" text-anchor="middle" font-family="Arial, sans-serif" font-size="18" font-weight="700" fill="#FFF9EF">DATA SCIENCE</text>
  <rect x="96" y="560" width="528" height="72" rx="22" fill="#EFE1CA"/>
  <text x="360" y="603" text-anchor="middle" font-family="Arial, sans-serif" font-size="34" font-weight="700" fill="#20303A">YASH PATEL</text>
</svg>
